<svg xmlns="http://www.w3.org/2000/svg" width="188.762" height="74.849" viewBox="0 0 188.762 74.849">
  <g id="Group_5" data-name="Group 5" transform="translate(-1143.093 -272.071)">
    <g id="Group_1" data-name="Group 1" transform="translate(1143.093 272.071)">
      <path id="Path_1" data-name="Path 1" d="M1190.167,272.071v48.291h-7.429V293.4l-16.332,23.185h-.128l-15.948-22.1v25.875h-7.237V272.071h.064l23.249,32.92,23.633-32.92Z" transform="translate(-1143.093 -272.071)" fill="#a78548"/>
    </g>
    <g id="Group_2" data-name="Group 2" transform="translate(1143.093 293.14)">
      <path id="Path_2" data-name="Path 2" d="M1190.167,372.047v48.291h-7.429V393.374l-16.332,23.185h-.128l-15.948-22.1v25.875h-7.237V372.047h.064l23.249,32.92,23.633-32.92Z" transform="translate(-1143.093 -372.047)" fill="#a78548"/>
    </g>
    <g id="Group_3" data-name="Group 3" transform="translate(1212.931 290.6)">
      <path id="Path_3" data-name="Path 3" d="M1504.51,359.994v30.345h-5.744v-13.9l-9.508,13.509h-.079l-9.151-12.637v13.033h-5.546V359.994h.04l14.776,20.957,15.133-20.957Z" transform="translate(-1474.482 -359.994)" fill="#222"/>
      <path id="Path_4" data-name="Path 4" d="M1646.227,371.656a15.117,15.117,0,0,1,5.427-5.487,14.542,14.542,0,0,1,14.856,0,15.445,15.445,0,0,1,5.467,5.487,14.541,14.541,0,0,1,0,14.856,15.216,15.216,0,0,1-5.467,5.407,14.826,14.826,0,0,1-14.875,0,14.939,14.939,0,0,1-5.407-5.407,14.789,14.789,0,0,1,0-14.856Zm5.15,12.083a9.1,9.1,0,0,0,3.288,3.387,8.8,8.8,0,0,0,4.615,1.248,8.352,8.352,0,0,0,4.476-1.248,8.834,8.834,0,0,0,3.169-3.367,10.134,10.134,0,0,0-.04-9.448,9.046,9.046,0,0,0-3.229-3.387,8.867,8.867,0,0,0-9.072,0,9.037,9.037,0,0,0-3.229,3.387,9.62,9.62,0,0,0-1.189,4.754A9.339,9.339,0,0,0,1651.376,383.739Z" transform="translate(-1608.453 -363.258)" fill="#222"/>
      <path id="Path_5" data-name="Path 5" d="M1828.568,394.79l-6.14-9.27h-3.843v9.27h-5.744V365.633h8.834q5.427,0,8.418,2.634a9.091,9.091,0,0,1,2.991,7.19,11.541,11.541,0,0,1-1.129,5.051,8.377,8.377,0,0,1-3.466,3.7l6.774,10.577Zm-9.983-14.816h4.08a4.06,4.06,0,0,0,3.407-1.367,4.694,4.694,0,0,0,1.069-2.951,5.6,5.6,0,0,0-.911-3.03q-.912-1.446-3.526-1.446h-4.12Z" transform="translate(-1741.534 -364.445)" fill="#222"/>
      <path id="Path_6" data-name="Path 6" d="M1961.679,365.633v5.546h-14.142v6.22h12.518v5.546h-12.518v6.3h14.7v5.546h-20.441V365.633Z" transform="translate(-1843.309 -364.445)" fill="#222"/>
    </g>
    <g id="Group_4" data-name="Group 4" transform="translate(1212.909 328.743)">
      <path id="Path_7" data-name="Path 7" d="M1479.491,542.5v.991h-2.068v6.715h-1.034v-6.715h-2.015V542.5Z" transform="translate(-1474.375 -542.182)" fill="#848383"/>
      <path id="Path_8" data-name="Path 8" d="M1520.849,550.208l-1.812-2.846a2.178,2.178,0,0,1-.256.011h-1.141v2.835h-1.034V542.5h2.057a3.4,3.4,0,0,1,1.407.277,2.208,2.208,0,0,1,.97.816,2.313,2.313,0,0,1,.352,1.295,2.771,2.771,0,0,1-.314,1.311,2.046,2.046,0,0,1-.965.906l1.94,3.1Zm-.89-4.274a1.512,1.512,0,0,0,.368-1,1.57,1.57,0,0,0-.155-.671,1.32,1.32,0,0,0-.49-.549,1.527,1.527,0,0,0-.847-.218h-1.194v2.878h1.119A1.485,1.485,0,0,0,1519.958,545.934Z" transform="translate(-1507.706 -542.182)" fill="#848383"/>
      <path id="Path_9" data-name="Path 9" d="M1561.269,546.985h-2.963l-.821,2.025h-1.023l3.368-8.026h.064l3.368,8.026h-1.194Zm-.352-.9-1.1-2.814-1.141,2.814Z" transform="translate(-1539.163 -540.984)" fill="#848383"/>
      <path id="Path_10" data-name="Path 10" d="M1612.389,541.624v7.962h-.032l-5.66-5.745.021,5.489h-1.045V541.39h.053l5.649,5.809-.021-5.575Z" transform="translate(-1578.004 -541.304)" fill="#848383"/>
      <path id="Path_11" data-name="Path 11" d="M1659.082,543.355a3.134,3.134,0,0,0-.885-.139,1.6,1.6,0,0,0-1,.283.959.959,0,0,0,.064,1.556,5.58,5.58,0,0,0,1.231.6,5.527,5.527,0,0,1,1.008.464,2.059,2.059,0,0,1,.682.693,2.119,2.119,0,0,1,.272,1.125,2.087,2.087,0,0,1-.309,1.119,2.133,2.133,0,0,1-.879.789,2.931,2.931,0,0,1-1.338.288,4.172,4.172,0,0,1-1.375-.229,4.665,4.665,0,0,1-1.162-.581l.458-.821a3.731,3.731,0,0,0,.948.506,2.956,2.956,0,0,0,1.034.208,1.857,1.857,0,0,0,1.082-.32,1.076,1.076,0,0,0,.464-.949,1.033,1.033,0,0,0-.389-.847,4.217,4.217,0,0,0-1.093-.592,8.815,8.815,0,0,1-1.082-.48,2.286,2.286,0,0,1-.741-.645,1.659,1.659,0,0,1-.309-1.028,1.862,1.862,0,0,1,.634-1.466,2.523,2.523,0,0,1,1.647-.591,4.532,4.532,0,0,1,2.313.618l-.394.8A4.63,4.63,0,0,0,1659.082,543.355Z" transform="translate(-1617.245 -542.023)" fill="#848383"/>
      <path id="Path_12" data-name="Path 12" d="M1700.646,549.767a3.6,3.6,0,0,1-1.242.208,4.08,4.08,0,0,1-2.084-.522,3.61,3.61,0,0,1-1.386-1.407,3.991,3.991,0,0,1-.485-1.951,4.262,4.262,0,0,1,.49-2.052,3.627,3.627,0,0,1,1.359-1.428,3.769,3.769,0,0,1,1.966-.517,4.19,4.19,0,0,1,1.215.17,4.244,4.244,0,0,1,1.013.448l-.416.97a3.159,3.159,0,0,0-1.78-.6,2.567,2.567,0,0,0-1.38.394,2.907,2.907,0,0,0-1.013,1.071,2.994,2.994,0,0,0-.378,1.487,3.23,3.23,0,0,0,.346,1.5,2.542,2.542,0,0,0,.991,1.05,3.082,3.082,0,0,0,3.288-.208l.437.927A4.583,4.583,0,0,1,1700.646,549.767Z" transform="translate(-1648.86 -541.863)" fill="#848383"/>
      <path id="Path_13" data-name="Path 13" d="M1747.952,542.5v.991h-3.976v2.345h3.549v.991h-3.549v2.377h4.125v1h-5.159V542.5Z" transform="translate(-1686.343 -542.182)" fill="#848383"/>
      <path id="Path_14" data-name="Path 14" d="M1792.8,541.624v7.962h-.032l-5.66-5.745.021,5.489h-1.045V541.39h.053l5.649,5.809-.021-5.575Z" transform="translate(-1720.395 -541.304)" fill="#848383"/>
      <path id="Path_15" data-name="Path 15" d="M1838.587,542.5h2.111a4.539,4.539,0,0,1,2.382.57,3.454,3.454,0,0,1,1.375,1.471,4.345,4.345,0,0,1,.432,1.9,3.729,3.729,0,0,1-.522,1.977,3.566,3.566,0,0,1-1.4,1.322,3.986,3.986,0,0,1-1.9.464h-2.484Zm2.281,6.7a3.363,3.363,0,0,0,1.524-.336,2.486,2.486,0,0,0,1.05-.975,3.263,3.263,0,0,0-.016-3.08,2.594,2.594,0,0,0-1.05-.986,3.054,3.054,0,0,0-1.412-.336h-1.343v5.713Z" transform="translate(-1761.832 -542.182)" fill="#848383"/>
      <path id="Path_16" data-name="Path 16" d="M1915.872,542.5l-2.889,5.138v2.569h-1.034V547.64l-2.857-5.138h1.279l2.121,3.965,2.11-3.965Z" transform="translate(-1817.479 -542.182)" fill="#848383"/>
      <path id="Path_17" data-name="Path 17" d="M1953.326,544.081a4.048,4.048,0,0,1,1.434-1.444,3.854,3.854,0,0,1,3.928,0,4.079,4.079,0,0,1,1.444,1.444,3.774,3.774,0,0,1,.538,1.961,3.822,3.822,0,0,1-.533,1.972,3.939,3.939,0,0,1-1.444,1.434,3.919,3.919,0,0,1-5.9-3.406A3.8,3.8,0,0,1,1953.326,544.081Zm.917,3.432a2.876,2.876,0,0,0,1.05,1.066,2.806,2.806,0,0,0,1.455.394,2.778,2.778,0,0,0,1.444-.389,2.809,2.809,0,0,0,1.034-1.066,3.061,3.061,0,0,0-.005-2.958,2.869,2.869,0,0,0-1.045-1.076,2.779,2.779,0,0,0-1.45-.394,2.75,2.75,0,0,0-1.45.4,2.865,2.865,0,0,0-1.039,1.082,3,3,0,0,0-.378,1.482A2.893,2.893,0,0,0,1954.243,547.513Z" transform="translate(-1851.969 -541.863)" fill="#848383"/>
      <path id="Path_18" data-name="Path 18" d="M2009.354,548.4a1.8,1.8,0,0,0,.666.65,1.853,1.853,0,0,0,.933.24,1.986,1.986,0,0,0,.965-.235,1.724,1.724,0,0,0,.677-.65,1.792,1.792,0,0,0,.245-.927V542.5h1.012v5.01a2.754,2.754,0,0,1-.384,1.455,2.619,2.619,0,0,1-1.044.981,3.273,3.273,0,0,1-2.931,0,2.58,2.58,0,0,1-1.039-.981,2.785,2.785,0,0,1-.378-1.455V542.5h1.034v4.978A1.762,1.762,0,0,0,2009.354,548.4Z" transform="translate(-1895.601 -542.182)" fill="#848383"/>
    </g>
    <rect id="Rectangle_5" data-name="Rectangle 5" width="1.19" height="72.978" transform="translate(1199.995 273.942)" fill="#848383"/>
  </g>
</svg>
